<svg height='100px' width='100px'  fill="#201d72" xmlns="http://www.w3.org/2000/svg" data-name="Layer 1" viewBox="0 0 100 100" x="0px" y="0px"><title>03</title><g data-name="Group"><path data-name="Compound Path" d="M74.8,46.8V23.3h2.8V12.2H53.2V23.3H56V46.8L54.9,49a26.6,26.6,0,0,0-13-11.9V27.7h2.4V17.3H19.1V27.7h2.4v9.4A26.5,26.5,0,0,0,5.4,60h0c0,.4,0,.8,0,1.2a26.3,26.3,0,0,0,31,25.9l-.2.4H94.6ZM55.2,14.2H75.6v7.1H55.2ZM58,47.2v-24H72.8v24l8.7,17.9H49.3ZM21.1,19.3H42.3v6.4H21.1Zm1.8,19.4.6-.2V27.7H39.9V38.5l.6.2A24.6,24.6,0,0,1,53.8,51.3L50,59.1H7.5A24.5,24.5,0,0,1,22.9,38.7Zm8.8,47.1A24.4,24.4,0,0,1,7.4,61.4c0-.1,0-.2,0-.3H49.1l-11.6,24A24.5,24.5,0,0,1,31.7,85.8ZM48.4,67.2H82.4l9,18.6H39.3Z"></path></g></svg>